<mxfile host="app.diagrams.net" agent="Mozilla/5.0 (Windows NT 10.0; Win64; x64) AppleWebKit/537.36 (KHTML, like Gecko) Chrome/129.0.0.0 Safari/537.36" version="24.7.17">
  <diagram name="Page-1" id="UtbqCIII5eg-dSeG9doM">
    <mxGraphModel grid="1" page="1" gridSize="10" guides="1" tooltips="1" connect="1" arrows="1" fold="1" pageScale="1" pageWidth="827" pageHeight="1169" math="0" shadow="0">
      <root>
        <mxCell id="0" />
        <mxCell id="1" parent="0" />
        <mxCell id="754cyTdT4kKFlYtzWbgX-1" value="User Manager" style="ellipse;shape=umlControl;whiteSpace=wrap;html=1;fillColor=#d5e8d4;strokeColor=#82b366;" vertex="1" parent="1">
          <mxGeometry x="400" y="-660" width="85" height="90" as="geometry" />
        </mxCell>
        <mxCell id="754cyTdT4kKFlYtzWbgX-2" value="Report" style="ellipse;shape=umlEntity;whiteSpace=wrap;html=1;fillColor=#dae8fc;strokeColor=#6c8ebf;" vertex="1" parent="1">
          <mxGeometry x="1201" y="-945" width="80" height="80" as="geometry" />
        </mxCell>
        <mxCell id="754cyTdT4kKFlYtzWbgX-3" value="User Main UI" style="shape=umlBoundary;whiteSpace=wrap;html=1;fillColor=#d5e8d4;strokeColor=#82b366;" vertex="1" parent="1">
          <mxGeometry x="160" y="-710" width="100" height="90" as="geometry" />
        </mxCell>
        <mxCell id="754cyTdT4kKFlYtzWbgX-4" value="User" style="shape=umlActor;verticalLabelPosition=bottom;verticalAlign=top;html=1;" vertex="1" parent="1">
          <mxGeometry x="30" y="-630" width="30" height="60" as="geometry" />
        </mxCell>
        <mxCell id="754cyTdT4kKFlYtzWbgX-5" value="Review Manager" style="ellipse;shape=umlControl;whiteSpace=wrap;html=1;fillColor=#e1d5e7;strokeColor=#9673a6;" vertex="1" parent="1">
          <mxGeometry x="397.5" y="-490" width="90" height="90" as="geometry" />
        </mxCell>
        <mxCell id="754cyTdT4kKFlYtzWbgX-7" value="Listing Main UI" style="shape=umlBoundary;whiteSpace=wrap;html=1;fillColor=#f8cecc;strokeColor=#b85450;" vertex="1" parent="1">
          <mxGeometry x="160" y="-865" width="100" height="90" as="geometry" />
        </mxCell>
        <mxCell id="754cyTdT4kKFlYtzWbgX-8" value="Review&lt;div&gt;Main UI&lt;/div&gt;" style="shape=umlBoundary;whiteSpace=wrap;html=1;fillColor=#e1d5e7;strokeColor=#9673a6;" vertex="1" parent="1">
          <mxGeometry x="160" y="-570" width="100" height="90" as="geometry" />
        </mxCell>
        <mxCell id="754cyTdT4kKFlYtzWbgX-9" value="Search and Filter UI" style="shape=umlBoundary;whiteSpace=wrap;html=1;fillColor=#f8cecc;strokeColor=#b85450;" vertex="1" parent="1">
          <mxGeometry x="640" y="-1150" width="100" height="79" as="geometry" />
        </mxCell>
        <mxCell id="754cyTdT4kKFlYtzWbgX-10" value="Manage Account UI" style="shape=umlBoundary;whiteSpace=wrap;html=1;fillColor=#d5e8d4;strokeColor=#82b366;" vertex="1" parent="1">
          <mxGeometry x="640" y="-507.5" width="100" height="80" as="geometry" />
        </mxCell>
        <mxCell id="754cyTdT4kKFlYtzWbgX-11" value="Create Review UI" style="shape=umlBoundary;whiteSpace=wrap;html=1;fillColor=#e1d5e7;strokeColor=#9673a6;" vertex="1" parent="1">
          <mxGeometry x="640" y="-410" width="100" height="80" as="geometry" />
        </mxCell>
        <mxCell id="754cyTdT4kKFlYtzWbgX-12" style="rounded=0;orthogonalLoop=1;jettySize=auto;html=1;exitX=0.656;exitY=0.257;exitDx=0;exitDy=0;exitPerimeter=0;entryX=-0.002;entryY=0.53;entryDx=0;entryDy=0;entryPerimeter=0;endArrow=open;endFill=0;endSize=20;dashed=1;dashPattern=8 8;" edge="1" parent="1" source="754cyTdT4kKFlYtzWbgX-4" target="754cyTdT4kKFlYtzWbgX-3">
          <mxGeometry relative="1" as="geometry">
            <mxPoint x="70" y="-596" as="sourcePoint" />
          </mxGeometry>
        </mxCell>
        <mxCell id="754cyTdT4kKFlYtzWbgX-13" style="rounded=0;orthogonalLoop=1;jettySize=auto;html=1;exitX=0.75;exitY=0.1;exitDx=0;exitDy=0;exitPerimeter=0;entryX=-0.008;entryY=0.509;entryDx=0;entryDy=0;entryPerimeter=0;endArrow=open;endFill=0;endSize=20;dashed=1;dashPattern=8 8;" edge="1" parent="1" source="754cyTdT4kKFlYtzWbgX-4" target="754cyTdT4kKFlYtzWbgX-7">
          <mxGeometry relative="1" as="geometry">
            <mxPoint x="70" y="-596" as="sourcePoint" />
            <mxPoint x="260" y="-634" as="targetPoint" />
          </mxGeometry>
        </mxCell>
        <mxCell id="754cyTdT4kKFlYtzWbgX-14" style="rounded=0;orthogonalLoop=1;jettySize=auto;html=1;endArrow=open;endFill=0;endSize=20;dashed=1;dashPattern=8 8;entryX=-0.01;entryY=0.488;entryDx=0;entryDy=0;entryPerimeter=0;exitX=0.624;exitY=0.352;exitDx=0;exitDy=0;exitPerimeter=0;" edge="1" parent="1" target="754cyTdT4kKFlYtzWbgX-8" source="754cyTdT4kKFlYtzWbgX-4">
          <mxGeometry relative="1" as="geometry">
            <mxPoint x="70" y="-596" as="sourcePoint" />
            <mxPoint x="260" y="-435" as="targetPoint" />
          </mxGeometry>
        </mxCell>
        <mxCell id="754cyTdT4kKFlYtzWbgX-15" value="Transaction Main UI" style="shape=umlBoundary;whiteSpace=wrap;html=1;fillColor=#ffe6cc;strokeColor=#d79b00;" vertex="1" parent="1">
          <mxGeometry x="160" y="-400" width="100" height="90" as="geometry" />
        </mxCell>
        <mxCell id="754cyTdT4kKFlYtzWbgX-16" style="rounded=0;orthogonalLoop=1;jettySize=auto;html=1;entryX=-0.008;entryY=0.551;entryDx=0;entryDy=0;entryPerimeter=0;endArrow=open;endFill=0;endSize=20;dashed=1;dashPattern=8 8;exitX=0.5;exitY=0.5;exitDx=0;exitDy=0;exitPerimeter=0;" edge="1" parent="1" target="754cyTdT4kKFlYtzWbgX-15" source="754cyTdT4kKFlYtzWbgX-4">
          <mxGeometry relative="1" as="geometry">
            <mxPoint x="70" y="-596" as="sourcePoint" />
            <mxPoint x="269" y="-331" as="targetPoint" />
          </mxGeometry>
        </mxCell>
        <mxCell id="754cyTdT4kKFlYtzWbgX-17" value="Transaction Manager" style="ellipse;shape=umlControl;whiteSpace=wrap;html=1;fillColor=#ffe6cc;strokeColor=#d79b00;" vertex="1" parent="1">
          <mxGeometry x="400" y="-360" width="90" height="90" as="geometry" />
        </mxCell>
        <mxCell id="754cyTdT4kKFlYtzWbgX-18" style="rounded=0;orthogonalLoop=1;jettySize=auto;html=1;entryX=0.013;entryY=0.557;entryDx=0;entryDy=0;entryPerimeter=0;endArrow=open;endFill=0;endSize=20;dashed=1;dashPattern=8 8;exitX=1.006;exitY=0.657;exitDx=0;exitDy=0;exitPerimeter=0;" edge="1" parent="1" source="754cyTdT4kKFlYtzWbgX-3" target="754cyTdT4kKFlYtzWbgX-1">
          <mxGeometry relative="1" as="geometry">
            <mxPoint x="313.85" y="-731.2799999999999" as="sourcePoint" />
            <mxPoint x="414.0000000000001" y="-808.7199999999999" as="targetPoint" />
          </mxGeometry>
        </mxCell>
        <mxCell id="754cyTdT4kKFlYtzWbgX-20" style="rounded=0;orthogonalLoop=1;jettySize=auto;html=1;exitX=1.026;exitY=0.531;exitDx=0;exitDy=0;exitPerimeter=0;entryX=0.022;entryY=0.481;entryDx=0;entryDy=0;entryPerimeter=0;endArrow=open;endFill=0;endSize=20;dashed=1;dashPattern=8 8;" edge="1" parent="1" source="754cyTdT4kKFlYtzWbgX-8" target="754cyTdT4kKFlYtzWbgX-5">
          <mxGeometry relative="1" as="geometry">
            <mxPoint x="350" y="-510" as="sourcePoint" />
            <mxPoint x="427" y="-385" as="targetPoint" />
          </mxGeometry>
        </mxCell>
        <mxCell id="754cyTdT4kKFlYtzWbgX-21" style="rounded=0;orthogonalLoop=1;jettySize=auto;html=1;exitX=1.003;exitY=0.494;exitDx=0;exitDy=0;exitPerimeter=0;entryX=0.022;entryY=0.467;entryDx=0;entryDy=0;entryPerimeter=0;endArrow=open;endFill=0;endSize=20;dashed=1;dashPattern=8 8;" edge="1" parent="1" source="754cyTdT4kKFlYtzWbgX-15" target="754cyTdT4kKFlYtzWbgX-17">
          <mxGeometry relative="1" as="geometry">
            <mxPoint x="352" y="-331" as="sourcePoint" />
            <mxPoint x="426" y="-279" as="targetPoint" />
          </mxGeometry>
        </mxCell>
        <mxCell id="754cyTdT4kKFlYtzWbgX-22" value="Login UI" style="shape=umlBoundary;whiteSpace=wrap;html=1;fillColor=#d5e8d4;strokeColor=#82b366;" vertex="1" parent="1">
          <mxGeometry x="640" y="-720" width="100" height="80" as="geometry" />
        </mxCell>
        <mxCell id="754cyTdT4kKFlYtzWbgX-23" value="Signup UI" style="shape=umlBoundary;whiteSpace=wrap;html=1;fillColor=#d5e8d4;strokeColor=#82b366;" vertex="1" parent="1">
          <mxGeometry x="640" y="-620" width="100" height="80" as="geometry" />
        </mxCell>
        <mxCell id="754cyTdT4kKFlYtzWbgX-24" value="Browse UI" style="shape=umlBoundary;whiteSpace=wrap;html=1;fillColor=#f8cecc;strokeColor=#b85450;" vertex="1" parent="1">
          <mxGeometry x="640" y="-1035" width="100" height="80" as="geometry" />
        </mxCell>
        <mxCell id="754cyTdT4kKFlYtzWbgX-25" value="Offer" style="ellipse;shape=umlEntity;whiteSpace=wrap;html=1;fillColor=#dae8fc;strokeColor=#6c8ebf;" vertex="1" parent="1">
          <mxGeometry x="1201" y="-176" width="80" height="80" as="geometry" />
        </mxCell>
        <mxCell id="754cyTdT4kKFlYtzWbgX-26" value="User" style="ellipse;shape=umlEntity;whiteSpace=wrap;html=1;fillColor=#dae8fc;strokeColor=#6c8ebf;" vertex="1" parent="1">
          <mxGeometry x="1201" y="-770" width="80" height="80" as="geometry" />
        </mxCell>
        <mxCell id="754cyTdT4kKFlYtzWbgX-27" value="Review" style="ellipse;shape=umlEntity;whiteSpace=wrap;html=1;fillColor=#dae8fc;strokeColor=#6c8ebf;" vertex="1" parent="1">
          <mxGeometry x="1201" y="-520" width="80" height="80" as="geometry" />
        </mxCell>
        <mxCell id="754cyTdT4kKFlYtzWbgX-28" value="Listing" style="ellipse;shape=umlEntity;whiteSpace=wrap;html=1;fillColor=#dae8fc;strokeColor=#6c8ebf;" vertex="1" parent="1">
          <mxGeometry x="1201" y="-1090" width="80" height="80" as="geometry" />
        </mxCell>
        <mxCell id="M8Jlm5J5RQ1ynBPY7ZLL-1" value="Listing Manager" style="ellipse;shape=umlControl;whiteSpace=wrap;html=1;fillColor=#f8cecc;strokeColor=#b85450;" vertex="1" parent="1">
          <mxGeometry x="397.5" y="-890" width="85" height="90" as="geometry" />
        </mxCell>
        <mxCell id="M8Jlm5J5RQ1ynBPY7ZLL-2" style="rounded=0;orthogonalLoop=1;jettySize=auto;html=1;endArrow=open;endFill=0;endSize=20;dashed=1;dashPattern=8 8;exitX=0.992;exitY=0.335;exitDx=0;exitDy=0;exitPerimeter=0;entryX=-0.009;entryY=0.557;entryDx=0;entryDy=0;entryPerimeter=0;" edge="1" parent="1" source="754cyTdT4kKFlYtzWbgX-7" target="M8Jlm5J5RQ1ynBPY7ZLL-1">
          <mxGeometry relative="1" as="geometry">
            <mxPoint x="300" y="-730" as="sourcePoint" />
            <mxPoint x="430" y="-850" as="targetPoint" />
          </mxGeometry>
        </mxCell>
        <mxCell id="dSQmJPlIX_rW3hFXBuFH-2" style="rounded=0;orthogonalLoop=1;jettySize=auto;html=1;endArrow=open;endFill=0;endSize=20;dashed=1;dashPattern=8 8;exitX=0.971;exitY=0.453;exitDx=0;exitDy=0;exitPerimeter=0;entryX=-0.002;entryY=0.527;entryDx=0;entryDy=0;entryPerimeter=0;" edge="1" parent="1" source="M8Jlm5J5RQ1ynBPY7ZLL-1" target="754cyTdT4kKFlYtzWbgX-24">
          <mxGeometry relative="1" as="geometry">
            <mxPoint x="268" y="-844" as="sourcePoint" />
            <mxPoint x="322" y="-1003" as="targetPoint" />
          </mxGeometry>
        </mxCell>
        <mxCell id="dSQmJPlIX_rW3hFXBuFH-3" value="Create Listing UI" style="shape=umlBoundary;whiteSpace=wrap;html=1;fillColor=#f8cecc;strokeColor=#b85450;" vertex="1" parent="1">
          <mxGeometry x="640" y="-920" width="100" height="80" as="geometry" />
        </mxCell>
        <mxCell id="dSQmJPlIX_rW3hFXBuFH-4" value="Manage Listing UI" style="shape=umlBoundary;whiteSpace=wrap;html=1;fillColor=#f8cecc;strokeColor=#b85450;" vertex="1" parent="1">
          <mxGeometry x="640" y="-820" width="100" height="80" as="geometry" />
        </mxCell>
        <mxCell id="dSQmJPlIX_rW3hFXBuFH-5" value="View Transactions UI" style="shape=umlBoundary;whiteSpace=wrap;html=1;fillColor=#ffe6cc;strokeColor=#d79b00;" vertex="1" parent="1">
          <mxGeometry x="640" y="-300" width="100" height="80" as="geometry" />
        </mxCell>
        <mxCell id="dSQmJPlIX_rW3hFXBuFH-6" value="Create Offer UI" style="shape=umlBoundary;whiteSpace=wrap;html=1;fillColor=#f5f5f5;strokeColor=#666666;fontColor=#333333;" vertex="1" parent="1">
          <mxGeometry x="640" y="-170" width="100" height="80" as="geometry" />
        </mxCell>
        <mxCell id="dSQmJPlIX_rW3hFXBuFH-7" value="Manage Offer UI" style="shape=umlBoundary;whiteSpace=wrap;html=1;fillColor=#f5f5f5;strokeColor=#666666;fontColor=#333333;" vertex="1" parent="1">
          <mxGeometry x="640" y="-80" width="100" height="80" as="geometry" />
        </mxCell>
        <mxCell id="M8Jlm5J5RQ1ynBPY7ZLL-11" value="Offer Main UI" style="shape=umlBoundary;whiteSpace=wrap;html=1;fillColor=#f5f5f5;fontColor=#333333;strokeColor=#666666;" vertex="1" parent="1">
          <mxGeometry x="160" y="-206" width="100" height="90" as="geometry" />
        </mxCell>
        <mxCell id="M8Jlm5J5RQ1ynBPY7ZLL-12" value="Offer Manager" style="ellipse;shape=umlControl;whiteSpace=wrap;html=1;fillColor=#f5f5f5;fontColor=#333333;strokeColor=#666666;" vertex="1" parent="1">
          <mxGeometry x="400" y="-176" width="80" height="86" as="geometry" />
        </mxCell>
        <mxCell id="M8Jlm5J5RQ1ynBPY7ZLL-13" style="rounded=0;orthogonalLoop=1;jettySize=auto;html=1;entryX=0.017;entryY=0.541;entryDx=0;entryDy=0;entryPerimeter=0;endArrow=open;endFill=0;endSize=20;dashed=1;dashPattern=8 8;exitX=0.5;exitY=0.5;exitDx=0;exitDy=0;exitPerimeter=0;" edge="1" parent="1" target="M8Jlm5J5RQ1ynBPY7ZLL-11" source="754cyTdT4kKFlYtzWbgX-4">
          <mxGeometry relative="1" as="geometry">
            <mxPoint x="70" y="-596" as="sourcePoint" />
            <mxPoint x="230" y="-342" as="targetPoint" />
          </mxGeometry>
        </mxCell>
        <mxCell id="dSQmJPlIX_rW3hFXBuFH-9" value="Listing Controller" style="ellipse;shape=umlControl;whiteSpace=wrap;html=1;fillColor=#f8cecc;strokeColor=#b85450;" vertex="1" parent="1">
          <mxGeometry x="940" y="-1070" width="95" height="95" as="geometry" />
        </mxCell>
        <mxCell id="M8Jlm5J5RQ1ynBPY7ZLL-14" value="Transaction" style="ellipse;shape=umlEntity;whiteSpace=wrap;html=1;fillColor=#dae8fc;strokeColor=#6c8ebf;" vertex="1" parent="1">
          <mxGeometry x="1201" y="-340" width="80" height="80" as="geometry" />
        </mxCell>
        <mxCell id="dSQmJPlIX_rW3hFXBuFH-10" value="User Controller" style="ellipse;shape=umlControl;whiteSpace=wrap;html=1;fillColor=#d5e8d4;strokeColor=#82b366;" vertex="1" parent="1">
          <mxGeometry x="940" y="-785" width="90" height="95" as="geometry" />
        </mxCell>
        <mxCell id="dSQmJPlIX_rW3hFXBuFH-11" value="Review Controller" style="ellipse;shape=umlControl;whiteSpace=wrap;html=1;fillColor=#e1d5e7;strokeColor=#9673a6;" vertex="1" parent="1">
          <mxGeometry x="935" y="-515" width="95" height="95" as="geometry" />
        </mxCell>
        <mxCell id="dSQmJPlIX_rW3hFXBuFH-12" value="Transaction Controller" style="ellipse;shape=umlControl;whiteSpace=wrap;html=1;fillColor=#ffe6cc;strokeColor=#d79b00;" vertex="1" parent="1">
          <mxGeometry x="935" y="-375" width="95" height="95" as="geometry" />
        </mxCell>
        <mxCell id="M8Jlm5J5RQ1ynBPY7ZLL-15" style="rounded=0;orthogonalLoop=1;jettySize=auto;html=1;exitX=0.992;exitY=0.478;exitDx=0;exitDy=0;exitPerimeter=0;endArrow=open;endFill=0;endSize=20;dashed=1;dashPattern=8 8;entryX=0.064;entryY=0.467;entryDx=0;entryDy=0;entryPerimeter=0;" edge="1" parent="1" source="M8Jlm5J5RQ1ynBPY7ZLL-11" target="M8Jlm5J5RQ1ynBPY7ZLL-12">
          <mxGeometry relative="1" as="geometry">
            <mxPoint x="340" y="-203" as="sourcePoint" />
            <mxPoint x="420" y="-163" as="targetPoint" />
          </mxGeometry>
        </mxCell>
        <mxCell id="dSQmJPlIX_rW3hFXBuFH-13" value="Offer Controller" style="ellipse;shape=umlControl;whiteSpace=wrap;html=1;fillColor=#f5f5f5;strokeColor=#666666;fontColor=#333333;" vertex="1" parent="1">
          <mxGeometry x="937.5" y="-200" width="85" height="90" as="geometry" />
        </mxCell>
        <mxCell id="M8Jlm5J5RQ1ynBPY7ZLL-16" style="rounded=0;orthogonalLoop=1;jettySize=auto;html=1;endArrow=open;endFill=0;endSize=20;dashed=1;dashPattern=8 8;exitX=1.006;exitY=0.476;exitDx=0;exitDy=0;exitPerimeter=0;entryX=-0.021;entryY=0.488;entryDx=0;entryDy=0;entryPerimeter=0;" edge="1" parent="1" source="M8Jlm5J5RQ1ynBPY7ZLL-1" target="754cyTdT4kKFlYtzWbgX-9">
          <mxGeometry relative="1" as="geometry">
            <mxPoint x="588" y="-1109" as="sourcePoint" />
            <mxPoint x="770" y="-1368" as="targetPoint" />
          </mxGeometry>
        </mxCell>
        <mxCell id="M8Jlm5J5RQ1ynBPY7ZLL-17" style="rounded=0;orthogonalLoop=1;jettySize=auto;html=1;endArrow=open;endFill=0;endSize=20;dashed=1;dashPattern=8 8;exitX=0.972;exitY=0.486;exitDx=0;exitDy=0;exitPerimeter=0;entryX=-0.04;entryY=0.517;entryDx=0;entryDy=0;entryPerimeter=0;" edge="1" parent="1" source="M8Jlm5J5RQ1ynBPY7ZLL-1" target="dSQmJPlIX_rW3hFXBuFH-3">
          <mxGeometry relative="1" as="geometry">
            <mxPoint x="591" y="-1107" as="sourcePoint" />
            <mxPoint x="768" y="-1271" as="targetPoint" />
          </mxGeometry>
        </mxCell>
        <mxCell id="M8Jlm5J5RQ1ynBPY7ZLL-18" style="rounded=0;orthogonalLoop=1;jettySize=auto;html=1;endArrow=open;endFill=0;endSize=20;dashed=1;dashPattern=8 8;exitX=1.006;exitY=0.613;exitDx=0;exitDy=0;exitPerimeter=0;entryX=-0.03;entryY=0.529;entryDx=0;entryDy=0;entryPerimeter=0;" edge="1" parent="1" source="M8Jlm5J5RQ1ynBPY7ZLL-1" target="dSQmJPlIX_rW3hFXBuFH-4">
          <mxGeometry relative="1" as="geometry">
            <mxPoint x="601" y="-1097" as="sourcePoint" />
            <mxPoint x="778" y="-1261" as="targetPoint" />
          </mxGeometry>
        </mxCell>
        <mxCell id="M8Jlm5J5RQ1ynBPY7ZLL-19" style="rounded=0;orthogonalLoop=1;jettySize=auto;html=1;endArrow=open;endFill=0;endSize=20;dashed=1;dashPattern=8 8;exitX=1.014;exitY=0.64;exitDx=0;exitDy=0;exitPerimeter=0;entryX=0.009;entryY=0.653;entryDx=0;entryDy=0;entryPerimeter=0;" edge="1" parent="1" source="754cyTdT4kKFlYtzWbgX-24" target="dSQmJPlIX_rW3hFXBuFH-9">
          <mxGeometry relative="1" as="geometry">
            <mxPoint x="840" y="-1270" as="sourcePoint" />
            <mxPoint x="1000" y="-1230" as="targetPoint" />
          </mxGeometry>
        </mxCell>
        <mxCell id="M8Jlm5J5RQ1ynBPY7ZLL-20" style="rounded=0;orthogonalLoop=1;jettySize=auto;html=1;endArrow=open;endFill=0;endSize=20;dashed=1;dashPattern=8 8;exitX=0.998;exitY=0.495;exitDx=0;exitDy=0;exitPerimeter=0;entryX=0.016;entryY=0.538;entryDx=0;entryDy=0;entryPerimeter=0;" edge="1" parent="1" source="754cyTdT4kKFlYtzWbgX-9" target="dSQmJPlIX_rW3hFXBuFH-9">
          <mxGeometry relative="1" as="geometry">
            <mxPoint x="820" y="-1190" as="sourcePoint" />
            <mxPoint x="980" y="-1190" as="targetPoint" />
          </mxGeometry>
        </mxCell>
        <mxCell id="M8Jlm5J5RQ1ynBPY7ZLL-21" style="rounded=0;orthogonalLoop=1;jettySize=auto;html=1;endArrow=open;endFill=0;endSize=20;dashed=1;dashPattern=8 8;entryX=0.133;entryY=0.816;entryDx=0;entryDy=0;entryPerimeter=0;exitX=0.998;exitY=0.592;exitDx=0;exitDy=0;exitPerimeter=0;" edge="1" parent="1" source="dSQmJPlIX_rW3hFXBuFH-3" target="dSQmJPlIX_rW3hFXBuFH-9">
          <mxGeometry relative="1" as="geometry">
            <mxPoint x="820" y="-1080" as="sourcePoint" />
            <mxPoint x="980" y="-1080" as="targetPoint" />
          </mxGeometry>
        </mxCell>
        <mxCell id="M8Jlm5J5RQ1ynBPY7ZLL-22" style="rounded=0;orthogonalLoop=1;jettySize=auto;html=1;endArrow=open;endFill=0;endSize=20;dashed=1;dashPattern=8 8;exitX=0.971;exitY=0.372;exitDx=0;exitDy=0;exitPerimeter=0;entryX=-0.019;entryY=0.543;entryDx=0;entryDy=0;entryPerimeter=0;" edge="1" parent="1" source="754cyTdT4kKFlYtzWbgX-1" target="754cyTdT4kKFlYtzWbgX-22">
          <mxGeometry relative="1" as="geometry">
            <mxPoint x="550" y="-720" as="sourcePoint" />
            <mxPoint x="710" y="-720" as="targetPoint" />
          </mxGeometry>
        </mxCell>
        <mxCell id="M8Jlm5J5RQ1ynBPY7ZLL-23" style="rounded=0;orthogonalLoop=1;jettySize=auto;html=1;endArrow=open;endFill=0;endSize=20;dashed=1;dashPattern=8 8;exitX=1;exitY=0.556;exitDx=0;exitDy=0;exitPerimeter=0;entryX=-0.017;entryY=0.585;entryDx=0;entryDy=0;entryPerimeter=0;" edge="1" parent="1" source="dSQmJPlIX_rW3hFXBuFH-9" target="754cyTdT4kKFlYtzWbgX-28">
          <mxGeometry relative="1" as="geometry">
            <mxPoint x="1085" y="-1170" as="sourcePoint" />
            <mxPoint x="1245" y="-1170" as="targetPoint" />
          </mxGeometry>
        </mxCell>
        <mxCell id="M8Jlm5J5RQ1ynBPY7ZLL-24" style="rounded=0;orthogonalLoop=1;jettySize=auto;html=1;endArrow=open;endFill=0;endSize=20;dashed=1;dashPattern=8 8;exitX=0.912;exitY=0.853;exitDx=0;exitDy=0;exitPerimeter=0;entryX=0.031;entryY=0.543;entryDx=0;entryDy=0;entryPerimeter=0;" edge="1" parent="1" source="754cyTdT4kKFlYtzWbgX-1" target="754cyTdT4kKFlYtzWbgX-10">
          <mxGeometry relative="1" as="geometry">
            <mxPoint x="830" y="-880.0000000000001" as="sourcePoint" />
            <mxPoint x="990" y="-880.0000000000001" as="targetPoint" />
          </mxGeometry>
        </mxCell>
        <mxCell id="M8Jlm5J5RQ1ynBPY7ZLL-25" style="rounded=0;orthogonalLoop=1;jettySize=auto;html=1;endArrow=open;endFill=0;endSize=20;dashed=1;dashPattern=8 8;exitX=0.99;exitY=0.564;exitDx=0;exitDy=0;exitPerimeter=0;entryX=0.021;entryY=0.507;entryDx=0;entryDy=0;entryPerimeter=0;" edge="1" parent="1" source="dSQmJPlIX_rW3hFXBuFH-5" target="dSQmJPlIX_rW3hFXBuFH-12">
          <mxGeometry relative="1" as="geometry">
            <mxPoint x="860" y="-391.42999999999995" as="sourcePoint" />
            <mxPoint x="1020" y="-391.42999999999995" as="targetPoint" />
          </mxGeometry>
        </mxCell>
        <mxCell id="M8Jlm5J5RQ1ynBPY7ZLL-26" style="rounded=0;orthogonalLoop=1;jettySize=auto;html=1;endArrow=open;endFill=0;endSize=20;dashed=1;dashPattern=8 8;exitX=0.997;exitY=0.643;exitDx=0;exitDy=0;exitPerimeter=0;entryX=-0.002;entryY=0.522;entryDx=0;entryDy=0;entryPerimeter=0;" edge="1" parent="1" source="754cyTdT4kKFlYtzWbgX-1" target="754cyTdT4kKFlYtzWbgX-23">
          <mxGeometry relative="1" as="geometry">
            <mxPoint x="560" y="-680" as="sourcePoint" />
            <mxPoint x="720" y="-680" as="targetPoint" />
          </mxGeometry>
        </mxCell>
        <mxCell id="M8Jlm5J5RQ1ynBPY7ZLL-27" style="rounded=0;orthogonalLoop=1;jettySize=auto;html=1;endArrow=open;endFill=0;endSize=20;dashed=1;dashPattern=8 8;entryX=0.197;entryY=0.901;entryDx=0;entryDy=0;entryPerimeter=0;exitX=1.02;exitY=0.481;exitDx=0;exitDy=0;exitPerimeter=0;" edge="1" parent="1" source="dSQmJPlIX_rW3hFXBuFH-4" target="dSQmJPlIX_rW3hFXBuFH-9">
          <mxGeometry relative="1" as="geometry">
            <mxPoint x="845" y="-950.4200000000001" as="sourcePoint" />
            <mxPoint x="1005" y="-950.4200000000001" as="targetPoint" />
          </mxGeometry>
        </mxCell>
        <mxCell id="M8Jlm5J5RQ1ynBPY7ZLL-28" style="rounded=0;orthogonalLoop=1;jettySize=auto;html=1;endArrow=open;endFill=0;endSize=20;dashed=1;dashPattern=8 8;exitX=1.002;exitY=0.56;exitDx=0;exitDy=0;exitPerimeter=0;entryX=-0.01;entryY=0.517;entryDx=0;entryDy=0;entryPerimeter=0;" edge="1" parent="1" source="754cyTdT4kKFlYtzWbgX-17" target="dSQmJPlIX_rW3hFXBuFH-5">
          <mxGeometry relative="1" as="geometry">
            <mxPoint x="827" y="-415.71000000000004" as="sourcePoint" />
            <mxPoint x="987" y="-415.71000000000004" as="targetPoint" />
          </mxGeometry>
        </mxCell>
        <mxCell id="M8Jlm5J5RQ1ynBPY7ZLL-29" style="rounded=0;orthogonalLoop=1;jettySize=auto;html=1;endArrow=open;endFill=0;endSize=20;dashed=1;dashPattern=8 8;exitX=0.98;exitY=0.535;exitDx=0;exitDy=0;exitPerimeter=0;entryX=0.052;entryY=0.581;entryDx=0;entryDy=0;entryPerimeter=0;" edge="1" parent="1" source="754cyTdT4kKFlYtzWbgX-11" target="dSQmJPlIX_rW3hFXBuFH-11">
          <mxGeometry relative="1" as="geometry">
            <mxPoint x="820" y="-539.71" as="sourcePoint" />
            <mxPoint x="980" y="-539.71" as="targetPoint" />
          </mxGeometry>
        </mxCell>
        <mxCell id="M8Jlm5J5RQ1ynBPY7ZLL-30" style="rounded=0;orthogonalLoop=1;jettySize=auto;html=1;endArrow=open;endFill=0;endSize=20;dashed=1;dashPattern=8 8;exitX=0.982;exitY=0.668;exitDx=0;exitDy=0;exitPerimeter=0;entryX=-0.039;entryY=0.493;entryDx=0;entryDy=0;entryPerimeter=0;" edge="1" parent="1" source="754cyTdT4kKFlYtzWbgX-5" target="754cyTdT4kKFlYtzWbgX-11">
          <mxGeometry relative="1" as="geometry">
            <mxPoint x="590" y="-530" as="sourcePoint" />
            <mxPoint x="750" y="-530" as="targetPoint" />
          </mxGeometry>
        </mxCell>
        <mxCell id="M8Jlm5J5RQ1ynBPY7ZLL-32" style="rounded=0;orthogonalLoop=1;jettySize=auto;html=1;endArrow=open;endFill=0;endSize=20;dashed=1;dashPattern=8 8;exitX=0.987;exitY=0.582;exitDx=0;exitDy=0;exitPerimeter=0;" edge="1" parent="1" source="754cyTdT4kKFlYtzWbgX-10" target="dSQmJPlIX_rW3hFXBuFH-10">
          <mxGeometry relative="1" as="geometry">
            <mxPoint x="860" y="-690" as="sourcePoint" />
            <mxPoint x="1020" y="-690" as="targetPoint" />
          </mxGeometry>
        </mxCell>
        <mxCell id="M8Jlm5J5RQ1ynBPY7ZLL-33" style="rounded=0;orthogonalLoop=1;jettySize=auto;html=1;endArrow=open;endFill=0;endSize=20;dashed=1;dashPattern=8 8;exitX=1.03;exitY=0.487;exitDx=0;exitDy=0;exitPerimeter=0;entryX=0.007;entryY=0.748;entryDx=0;entryDy=0;entryPerimeter=0;" edge="1" parent="1" source="754cyTdT4kKFlYtzWbgX-23" target="dSQmJPlIX_rW3hFXBuFH-10">
          <mxGeometry relative="1" as="geometry">
            <mxPoint x="820" y="-752.5" as="sourcePoint" />
            <mxPoint x="980" y="-752.5" as="targetPoint" />
          </mxGeometry>
        </mxCell>
        <mxCell id="M8Jlm5J5RQ1ynBPY7ZLL-34" style="rounded=0;orthogonalLoop=1;jettySize=auto;html=1;endArrow=open;endFill=0;endSize=20;dashed=1;dashPattern=8 8;exitX=1.006;exitY=0.493;exitDx=0;exitDy=0;exitPerimeter=0;entryX=-0.01;entryY=0.524;entryDx=0;entryDy=0;entryPerimeter=0;" edge="1" parent="1" source="754cyTdT4kKFlYtzWbgX-22" target="dSQmJPlIX_rW3hFXBuFH-10">
          <mxGeometry relative="1" as="geometry">
            <mxPoint x="760" y="-860" as="sourcePoint" />
            <mxPoint x="920" y="-860" as="targetPoint" />
          </mxGeometry>
        </mxCell>
        <mxCell id="M8Jlm5J5RQ1ynBPY7ZLL-38" style="rounded=0;orthogonalLoop=1;jettySize=auto;html=1;endArrow=open;endFill=0;endSize=20;dashed=1;dashPattern=8 8;exitX=0.978;exitY=0.769;exitDx=0;exitDy=0;exitPerimeter=0;entryX=-0.008;entryY=0.445;entryDx=0;entryDy=0;entryPerimeter=0;" edge="1" parent="1" source="M8Jlm5J5RQ1ynBPY7ZLL-12" target="dSQmJPlIX_rW3hFXBuFH-7">
          <mxGeometry relative="1" as="geometry">
            <mxPoint x="540" y="-180" as="sourcePoint" />
            <mxPoint x="654" y="-170" as="targetPoint" />
          </mxGeometry>
        </mxCell>
        <mxCell id="M8Jlm5J5RQ1ynBPY7ZLL-40" style="rounded=0;orthogonalLoop=1;jettySize=auto;html=1;endArrow=open;endFill=0;endSize=20;dashed=1;dashPattern=8 8;exitX=1.018;exitY=0.479;exitDx=0;exitDy=0;exitPerimeter=0;entryX=-0.01;entryY=0.549;entryDx=0;entryDy=0;entryPerimeter=0;" edge="1" parent="1" source="dSQmJPlIX_rW3hFXBuFH-6" target="dSQmJPlIX_rW3hFXBuFH-13">
          <mxGeometry relative="1" as="geometry">
            <mxPoint x="775" y="-230" as="sourcePoint" />
            <mxPoint x="889" y="-220" as="targetPoint" />
          </mxGeometry>
        </mxCell>
        <mxCell id="M8Jlm5J5RQ1ynBPY7ZLL-41" style="rounded=0;orthogonalLoop=1;jettySize=auto;html=1;endArrow=open;endFill=0;endSize=20;dashed=1;dashPattern=8 8;exitX=1;exitY=0.465;exitDx=0;exitDy=0;exitPerimeter=0;entryX=-0.01;entryY=0.461;entryDx=0;entryDy=0;entryPerimeter=0;" edge="1" parent="1" source="M8Jlm5J5RQ1ynBPY7ZLL-12" target="dSQmJPlIX_rW3hFXBuFH-6">
          <mxGeometry relative="1" as="geometry">
            <mxPoint x="550" y="-190" as="sourcePoint" />
            <mxPoint x="730" y="-240" as="targetPoint" />
          </mxGeometry>
        </mxCell>
        <mxCell id="M8Jlm5J5RQ1ynBPY7ZLL-44" style="rounded=0;orthogonalLoop=1;jettySize=auto;html=1;endArrow=open;endFill=0;endSize=20;dashed=1;dashPattern=8 8;exitX=1.01;exitY=0.609;exitDx=0;exitDy=0;exitPerimeter=0;entryX=0;entryY=0.5;entryDx=0;entryDy=0;" edge="1" parent="1" source="dSQmJPlIX_rW3hFXBuFH-10" target="754cyTdT4kKFlYtzWbgX-26">
          <mxGeometry relative="1" as="geometry">
            <mxPoint x="1012" y="-908" as="sourcePoint" />
            <mxPoint x="1230" y="-832" as="targetPoint" />
          </mxGeometry>
        </mxCell>
        <mxCell id="M8Jlm5J5RQ1ynBPY7ZLL-45" style="rounded=0;orthogonalLoop=1;jettySize=auto;html=1;endArrow=open;endFill=0;endSize=20;dashed=1;dashPattern=8 8;exitX=0.991;exitY=0.472;exitDx=0;exitDy=0;exitPerimeter=0;entryX=0;entryY=0.5;entryDx=0;entryDy=0;" edge="1" parent="1" source="dSQmJPlIX_rW3hFXBuFH-11" target="754cyTdT4kKFlYtzWbgX-27">
          <mxGeometry relative="1" as="geometry">
            <mxPoint x="1065" y="-493" as="sourcePoint" />
            <mxPoint x="1219" y="-497" as="targetPoint" />
          </mxGeometry>
        </mxCell>
        <mxCell id="M8Jlm5J5RQ1ynBPY7ZLL-46" style="rounded=0;orthogonalLoop=1;jettySize=auto;html=1;endArrow=open;endFill=0;endSize=20;dashed=1;dashPattern=8 8;exitX=0.962;exitY=0.602;exitDx=0;exitDy=0;exitPerimeter=0;entryX=0;entryY=0.5;entryDx=0;entryDy=0;" edge="1" parent="1" source="dSQmJPlIX_rW3hFXBuFH-12" target="M8Jlm5J5RQ1ynBPY7ZLL-14">
          <mxGeometry relative="1" as="geometry">
            <mxPoint x="1084" y="-391" as="sourcePoint" />
            <mxPoint x="1270" y="-450" as="targetPoint" />
          </mxGeometry>
        </mxCell>
        <mxCell id="M8Jlm5J5RQ1ynBPY7ZLL-47" style="rounded=0;orthogonalLoop=1;jettySize=auto;html=1;endArrow=open;endFill=0;endSize=20;dashed=1;dashPattern=8 8;entryX=-0.01;entryY=0.613;entryDx=0;entryDy=0;entryPerimeter=0;exitX=0.963;exitY=0.529;exitDx=0;exitDy=0;exitPerimeter=0;" edge="1" parent="1" source="dSQmJPlIX_rW3hFXBuFH-7" target="dSQmJPlIX_rW3hFXBuFH-13">
          <mxGeometry relative="1" as="geometry">
            <mxPoint x="850" y="-90" as="sourcePoint" />
            <mxPoint x="1024" y="-60" as="targetPoint" />
          </mxGeometry>
        </mxCell>
        <mxCell id="M8Jlm5J5RQ1ynBPY7ZLL-48" style="rounded=0;orthogonalLoop=1;jettySize=auto;html=1;endArrow=open;endFill=0;endSize=20;dashed=1;dashPattern=8 8;exitX=0.999;exitY=0.556;exitDx=0;exitDy=0;exitPerimeter=0;entryX=0;entryY=0.5;entryDx=0;entryDy=0;" edge="1" parent="1" source="dSQmJPlIX_rW3hFXBuFH-13" target="754cyTdT4kKFlYtzWbgX-25">
          <mxGeometry relative="1" as="geometry">
            <mxPoint x="1076" y="-130" as="sourcePoint" />
            <mxPoint x="1200" y="-140" as="targetPoint" />
          </mxGeometry>
        </mxCell>
        <mxCell id="M8Jlm5J5RQ1ynBPY7ZLL-49" style="rounded=0;orthogonalLoop=1;jettySize=auto;html=1;endArrow=open;endFill=0;endSize=20;dashed=1;dashPattern=8 8;exitX=1.017;exitY=0.581;exitDx=0;exitDy=0;exitPerimeter=0;entryX=0;entryY=0.5;entryDx=0;entryDy=0;" edge="1" parent="1" source="dSQmJPlIX_rW3hFXBuFH-9" target="754cyTdT4kKFlYtzWbgX-2">
          <mxGeometry relative="1" as="geometry">
            <mxPoint x="1090" y="-1076" as="sourcePoint" />
            <mxPoint x="1199" y="-1169" as="targetPoint" />
          </mxGeometry>
        </mxCell>
      </root>
    </mxGraphModel>
  </diagram>
</mxfile>
